<?xml version="1.0" encoding="UTF-8" standalone="no"?>
<!DOCTYPE svg PUBLIC "-//W3C//DTD SVG 1.1//EN" "http://www.w3.org/Graphics/SVG/1.1/DTD/svg11.dtd">
<svg width="100%" height="100%" viewBox="0 0 1496 1496" version="1.1" xmlns="http://www.w3.org/2000/svg" xmlns:xlink="http://www.w3.org/1999/xlink" xml:space="preserve" xmlns:serif="http://www.serif.com/" style="fill-rule:evenodd;clip-rule:evenodd;stroke-linejoin:round;stroke-miterlimit:2;">
    <g transform="matrix(0.1,0,0,-0.1,0,1496)">
        <g transform="matrix(1,0,0,1,-16.8942,192.807)">
            <path d="M7175,14504C5801,14433 4592,14040 3483,13303C1171,11768 -51,9034 345,6283C687,3911 2184,1867 4344,824C5400,315 6590,68 7747,118C8223,139 8596,186 9029,281C11168,750 12999,2201 13955,4183C14655,5635 14847,7282 14499,8867C14355,9526 14101,10196 13774,10787C13048,12097 11939,13147 10596,13796C9788,14186 8935,14414 8000,14490C7870,14501 7297,14510 7175,14504ZM8055,14085C10103,13903 11937,12829 13092,11135C13992,9817 14395,8222 14234,6620C14003,4319 12606,2288 10534,1240C9756,846 8937,614 8040,533C7768,509 7172,509 6900,533C6003,614 5184,846 4406,1240C2334,2287 937,4320 706,6620C548,8190 931,9749 1795,11055C2625,12310 3848,13258 5259,13741C5871,13950 6465,14064 7150,14104C7298,14112 7885,14100 8055,14085Z" style="fill:rgb(52,54,66);fill-rule:nonzero;"/>
        </g>
        <g transform="matrix(1,0,0,1,-16.8942,192.807)">
            <path d="M7715,13034C7623,13024 7452,12987 7367,12959C7077,12862 6768,12630 6608,12389C6487,12208 6393,11972 6359,11764C6340,11650 6343,11396 6364,11285C6430,10936 6568,10650 6821,10335C7224,9834 7743,9535 8565,9331C8713,9295 8952,9247 9353,9175C9688,9114 9835,9083 10095,9015C10713,8855 11289,8598 11717,8292L11835,8208L11695,8351C11173,8884 10809,9505 10455,10460C10255,11003 10165,11221 10034,11481C9711,12127 9291,12559 8728,12824C8521,12922 8344,12979 8135,13015C8046,13031 7792,13042 7715,13034Z" style="fill:rgb(52,54,66);fill-rule:nonzero;"/>
        </g>
        <g transform="matrix(1,0,0,1,-16.8942,192.807)">
            <path d="M4465,9614C3668,9554 2988,9315 2505,8925C2391,8832 2192,8629 2113,8524C1840,8157 1687,7732 1655,7245C1648,7139 1660,6965 1686,6815C1843,5885 2497,5200 3521,4891C4141,4705 4771,4671 5395,4790C5847,4877 6342,5053 6885,5321C7158,5456 7373,5573 7885,5865C8292,6098 8839,6381 9120,6504C9954,6870 10702,7076 11454,7145C11542,7153 11651,7161 11695,7161L11775,7163L11680,7171C11094,7223 10846,7263 10420,7372C9862,7515 9288,7736 8670,8045C8412,8174 8258,8258 7880,8473C7065,8937 6712,9115 6258,9291C5846,9450 5452,9550 5060,9595C4928,9610 4565,9622 4465,9614Z" style="fill:rgb(52,54,66);fill-rule:nonzero;"/>
        </g>
        <g transform="matrix(1,0,0,1,-16.8942,192.807)">
            <path d="M11711,6005C11384,5767 10919,5541 10440,5386C10123,5283 9809,5207 9380,5130C8789,5024 8590,4981 8290,4894C7902,4781 7547,4611 7267,4402C7064,4251 6810,3977 6663,3748C6445,3412 6347,3105 6346,2765C6346,2517 6386,2338 6491,2121C6605,1883 6736,1722 6939,1570C7424,1205 8038,1165 8684,1456C9270,1719 9703,2157 10034,2819C10165,3079 10255,3297 10455,3840C10578,4172 10675,4401 10800,4655C11065,5192 11331,5577 11694,5948C11770,6026 11831,6090 11829,6089C11827,6088 11774,6051 11711,6005Z" style="fill:rgb(52,54,66);fill-rule:nonzero;"/>
        </g>
    </g>
</svg>
